<svg id="visual" viewBox="0 0 900 600" width="900" height="600" xmlns="http://www.w3.org/2000/svg" xmlns:xlink="http://www.w3.org/1999/xlink" version="1.1"><rect x="0" y="0" width="900" height="600" fill="#001220"></rect><defs><linearGradient id="grad1_0" x1="33.3%" y1="0%" x2="100%" y2="100%"><stop offset="20%" stop-color="#001220" stop-opacity="1"></stop><stop offset="80%" stop-color="#001220" stop-opacity="1"></stop></linearGradient></defs><defs><linearGradient id="grad2_0" x1="0%" y1="0%" x2="66.7%" y2="100%"><stop offset="20%" stop-color="#001220" stop-opacity="1"></stop><stop offset="80%" stop-color="#001220" stop-opacity="1"></stop></linearGradient></defs><g transform="translate(900, 0)"><path d="M0 189.3C-27.8 188.8 -55.6 188.3 -71.6 172.8C-87.5 157.3 -91.7 126.8 -109.6 109.6C-127.5 92.4 -159.3 88.5 -174.9 72.4C-190.5 56.4 -189.9 28.2 -189.3 0L0 0Z" fill="#0066FF"></path></g><g transform="translate(0, 600)"><path d="M0 -189.3C24.2 -184.6 48.3 -179.8 70.8 -170.9C93.3 -162 114.1 -149 132.2 -132.2C150.4 -115.5 165.8 -95.1 174.9 -72.4C183.9 -49.8 186.6 -24.9 189.3 0L0 0Z" fill="#0066FF"></path></g></svg>