<svg id="visual" viewBox="0 0 900 600" width="900" height="600" xmlns="http://www.w3.org/2000/svg" xmlns:xlink="http://www.w3.org/1999/xlink" version="1.1"><rect x="0" y="0" width="900" height="600" fill="#0066FF"></rect><defs><linearGradient id="grad1_0" x1="33.3%" y1="0%" x2="100%" y2="100%"><stop offset="20%" stop-color="#0066ff" stop-opacity="1"></stop><stop offset="80%" stop-color="#0066ff" stop-opacity="1"></stop></linearGradient></defs><defs><linearGradient id="grad2_0" x1="0%" y1="0%" x2="66.7%" y2="100%"><stop offset="20%" stop-color="#0066ff" stop-opacity="1"></stop><stop offset="80%" stop-color="#0066ff" stop-opacity="1"></stop></linearGradient></defs><g transform="translate(900, 0)"><path d="M0 378.6C-51.1 375.2 -102.1 371.9 -144.9 349.8C-187.6 327.6 -222.1 286.7 -246.8 246.8C-271.5 206.9 -286.4 168 -306.7 127.1C-327.1 86.1 -352.8 43 -378.6 0L0 0Z" fill="#001122"></path></g><g transform="translate(0, 600)"><path d="M0 -378.6C48.6 -369.1 97.2 -359.7 141.2 -340.9C185.2 -322.2 224.6 -294.2 260.9 -260.9C297.3 -227.7 330.7 -189.2 349.8 -144.9C368.9 -100.5 373.7 -50.3 378.6 0L0 0Z" fill="#001122"></path></g></svg>