<svg id="visual" viewBox="0 0 675 900" width="675" height="900" xmlns="http://www.w3.org/2000/svg" xmlns:xlink="http://www.w3.org/1999/xlink" version="1.1"><rect x="0" y="0" width="675" height="900" fill="#001122"></rect><defs><linearGradient id="grad1_0" x1="0%" y1="0%" x2="100%" y2="100%"><stop offset="30%" stop-color="#001122" stop-opacity="1"></stop><stop offset="70%" stop-color="#001122" stop-opacity="1"></stop></linearGradient></defs><defs><linearGradient id="grad2_0" x1="0%" y1="0%" x2="100%" y2="100%"><stop offset="30%" stop-color="#001122" stop-opacity="1"></stop><stop offset="70%" stop-color="#001122" stop-opacity="1"></stop></linearGradient></defs><g transform="translate(675, 0)"><path d="M0 393.8C-57.4 394.5 -114.8 395.2 -150.7 363.8C-186.6 332.3 -200.9 268.7 -227.7 227.7C-254.5 186.6 -293.6 168.1 -323.4 133.9C-353.1 99.7 -373.4 49.9 -393.7 0L0 0Z" fill="#0066FF"></path></g><g transform="translate(0, 900)"><path d="M0 -393.7C44.2 -368.1 88.4 -342.4 134.3 -324.3C180.2 -306.2 227.7 -295.7 268.7 -268.7C309.7 -241.7 344 -198.2 363.8 -150.7C383.5 -103.1 388.6 -51.6 393.8 0L0 0Z" fill="#0066FF"></path></g></svg>