<svg id="visual" viewBox="0 0 900 600" width="900" height="600" xmlns="http://www.w3.org/2000/svg" xmlns:xlink="http://www.w3.org/1999/xlink" version="1.1"><rect x="0" y="0" width="900" height="600" fill="#001220"></rect><defs><linearGradient id="grad1_0" x1="33.3%" y1="0%" x2="100%" y2="100%"><stop offset="20%" stop-color="#001220" stop-opacity="1"></stop><stop offset="80%" stop-color="#001220" stop-opacity="1"></stop></linearGradient></defs><defs><linearGradient id="grad2_0" x1="0%" y1="0%" x2="66.7%" y2="100%"><stop offset="20%" stop-color="#001220" stop-opacity="1"></stop><stop offset="80%" stop-color="#001220" stop-opacity="1"></stop></linearGradient></defs><g transform="translate(900, 0)"><path d="M0 297.5C-30.1 286.3 -60.2 275.1 -84.7 260.6C-109.1 246.1 -127.9 228.2 -156.9 216C-186 203.8 -225.3 197.3 -240.6 174.8C-256 152.4 -247.5 114 -253 82.2C-258.5 50.4 -278 25.2 -297.5 0L0 0Z" fill="#0066FF"></path></g><g transform="translate(0, 600)"><path d="M0 -297.5C28.2 -285.2 56.5 -273 86.2 -265.3C116 -257.7 147.2 -254.6 174.8 -240.6C202.5 -226.7 226.4 -202 239.5 -174C252.5 -146 254.6 -114.8 262.5 -85.3C270.3 -55.8 283.9 -27.9 297.5 0L0 0Z" fill="#0066FF"></path></g></svg>