<svg id="visual" viewBox="0 0 675 900" width="675" height="900" xmlns="http://www.w3.org/2000/svg" xmlns:xlink="http://www.w3.org/1999/xlink" version="1.1"><rect x="0" y="0" width="675" height="900" fill="#002233"></rect><path d="M176 0L168.8 37.5C161.7 75 147.3 150 119.2 225C91 300 49 375 35.2 450C21.3 525 35.7 600 59 675C82.3 750 114.7 825 130.8 862.5L147 900L0 900L0 862.5C0 825 0 750 0 675C0 600 0 525 0 450C0 375 0 300 0 225C0 150 0 75 0 37.5L0 0Z" fill="#0066FF" stroke-linecap="round" stroke-linejoin="miter"></path></svg>